{
  "source": "C:\\Users\\Peter\\Desktop\\stuff\\MIUN\\quantitative_research\\video_compression\\videos\\BVI-HD\\BVI-HD_CDVL_videos\\ORIG\\PlasmaAveragePan_1920x1080_60fps.mp4",
  "output": "C:\\Users\\Peter\\Desktop\\stuff\\MIUN\\quantitative_research\\video_compression\\compressed_videos\\BVI-HD\\av1\\1.5\\PlasmaAveragePan_1920x1080_60fps_av1.mkv",
  "codec": "av1",
  "ok": "Input #0, mov,mp4,m4a,3gp,3g2,mj2, from 'C:\\Users\\Peter\\Desktop\\stuff\\MIUN\\quantitative_research\\video_compression\\videos\\BVI-HD\\BVI-HD_CDVL_videos\\ORIG\\PlasmaAveragePan_1920x1080_60fps.mp4':\n  Metadata:\n    major_brand     : isom\n    minor_version   : 512\n    compatible_brands: isomiso2avc1mp41\n    encoder         : Lavf54.28.101\n  Duration: 00:00:05.00, start: 0.000000, bitrate: 73730 kb/s\n  Stream #0:0[0x1](und): Video: h264 (High 4:4:4 Predictive) (avc1 / 0x31637661), yuv420p(progressive), 1920x1080, 73727 kb/s, 60 fps, 60 tbr, 60 tbn (default)\n    Metadata:\n      handler_name    : VideoHandler\n      vendor_id       : [0][0][0][0]\n[out#0/matroska @ 0000019efafa7900] Codec AVOption b:a (set bitrate (in bits/s)) has not been used for any stream. The most likely reason is either wrong type (e.g. a video option with no video streams) or that it is a private option of some decoder which was not actually used for any stream.\nStream mapping:\n  Stream #0:0 -> #0:0 (h264 (native) -> av1 (libsvtav1))\nPress [q] to stop, [?] for help\nSvt[info]: -------------------------------------------\nSvt[info]: SVT [version]:\tSVT-AV1 Encoder Lib v3.1.0-19-g6ecfe8ec\nSvt[info]: SVT [build]  :\tGCC 15.2.0\t 64 bit\nSvt[info]: LIB Build date: Aug 17 2025 11:37:13\nSvt[info]: -------------------------------------------\nSvt[info]: Level of Parallelism: 5\nSvt[info]: Number of PPCS 93\nSvt[info]: [asm level on system : up to avx2]\nSvt[info]: [asm level selected : up to avx2]\nSvt[info]: -------------------------------------------\nSvt[info]: SVT [config]: main profile\ttier (auto)\tlevel (auto)\nSvt[info]: SVT [config]: width / height / fps numerator / fps denominator \t\t: 1920 / 1080 / 60 / 1\nSvt[info]: SVT [config]: bit-depth / color format \t\t\t\t\t: 8 / YUV420\nSvt[info]: SVT [config]: preset / tune / pred struct \t\t\t\t\t: 4 / PSNR / random access\nSvt[info]: SVT [config]: gop size / mini-gop size / key-frame type \t\t\t: 321 / 16 / key frame\nSvt[info]: SVT [config]: BRC mode / target bitrate (kbps)\t\t\t\t: VBR / 1500 \nSvt[info]: SVT [config]: AQ mode / Variance Boost \t\t\t\t\t: 2 / 0\nSvt[info]: SVT [config]: sharpness / luminance-based QP bias \t\t\t\t: 0 / 0\nSvt[info]: SVT [config]: QP scale compress strength \t\t\t\t\t: 0\nSvt[info]: -------------------------------------------\nOutput #0, matroska, to 'C:\\Users\\Peter\\Desktop\\stuff\\MIUN\\quantitative_research\\video_compression\\compressed_videos\\BVI-HD\\av1\\1.5\\PlasmaAveragePan_1920x1080_60fps_av1.mkv':\n  Metadata:\n    major_brand     : isom\n    minor_version   : 512\n    compatible_brands: isomiso2avc1mp41\n    encoder         : Lavf62.3.100\n  Stream #0:0(und): Video: av1 (AV01 / 0x31305641), yuv420p(tv, progressive), 1920x1080, q=2-31, 1500 kb/s, 60 fps, 1k tbn (default)\n    Metadata:\n      encoder         : Lavc62.11.100 libsvtav1\n      handler_name    : VideoHandler\n      vendor_id       : [0][0][0][0]\n    Side data:\n      cpb: bitrate max/min/avg: 0/0/1500000 buffer size: 1500000 vbv_delay: N/A\nframe=    0 fps=0.0 q=0.0 size=       0KiB time=N/A bitrate=N/A speed=N/A elapsed=0:00:01.03    \nframe=    0 fps=0.0 q=0.0 size=       0KiB time=N/A bitrate=N/A speed=N/A elapsed=0:00:01.55    \nframe=    0 fps=0.0 q=0.0 size=       0KiB time=N/A bitrate=N/A speed=N/A elapsed=0:00:02.08    \nframe=    1 fps=0.4 q=24.0 size=       1KiB time=00:00:00.00 bitrate=N/A speed=   0x elapsed=0:00:02.60    \nframe=    1 fps=0.3 q=24.0 size=       1KiB time=00:00:00.00 bitrate=N/A speed=   0x elapsed=0:00:03.12    \nframe=    2 fps=0.5 q=38.0 size=       1KiB time=00:00:00.01 bitrate= 341.8kbits/s speed=0.00455x elapsed=0:00:03.66    \nframe=    5 fps=1.2 q=34.0 size=       1KiB time=00:00:00.06 bitrate=  85.4kbits/s speed=0.016x elapsed=0:00:04.17    \nframe=    7 fps=1.5 q=34.0 size=       1KiB time=00:00:00.10 bitrate=  57.0kbits/s speed=0.0213x elapsed=0:00:04.68    \nframe=   11 fps=2.1 q=35.0 size=       1KiB time=00:00:00.16 bitrate=  34.2kbits/s speed=0.0319x elapsed=0:00:05.22    \nframe=   17 fps=3.0 q=24.0 size=       1KiB time=00:00:00.26 bitrate=  21.4kbits/s speed=0.0463x elapsed=0:00:05.75    \nframe=   20 fps=3.2 q=38.0 size=       1KiB time=00:00:00.31 bitrate=  18.0kbits/s speed=0.0505x elapsed=0:00:06.26    \nframe=   23 fps=3.4 q=35.0 size=       1KiB time=00:00:00.36 bitrate=  15.5kbits/s speed=0.054x elapsed=0:00:06.79    \nframe=   27 fps=3.7 q=35.0 size=       1KiB time=00:00:00.43 bitrate=  13.1kbits/s speed=0.0592x elapsed=0:00:07.32    \nframe=   32 fps=4.1 q=39.0 size=       1KiB time=00:00:00.51 bitrate=  11.0kbits/s speed=0.0658x elapsed=0:00:07.85    \nframe=   35 fps=4.2 q=36.0 size=       1KiB time=00:00:00.56 bitrate=  10.1kbits/s speed=0.0675x elapsed=0:00:08.39    \nframe=   38 fps=4.2 q=39.0 size=       1KiB time=00:00:00.61 bitrate=   9.2kbits/s speed=0.069x elapsed=0:00:08.94    \nframe=   40 fps=4.2 q=39.0 size=       1KiB time=00:00:00.65 bitrate=   8.8kbits/s speed=0.0685x elapsed=0:00:09.49    \nframe=   43 fps=4.3 q=36.0 size=       1KiB time=00:00:00.70 bitrate=   8.1kbits/s speed=0.0694x elapsed=0:00:10.08    \nframe=   48 fps=4.5 q=41.0 size=       1KiB time=00:00:00.78 bitrate=   7.3kbits/s speed=0.0738x elapsed=0:00:10.62    \nframe=   51 fps=4.6 q=39.0 size=       1KiB time=00:00:00.83 bitrate=   6.8kbits/s speed=0.0748x elapsed=0:00:11.13    \nframe=   55 fps=4.7 q=39.0 size=       1KiB time=00:00:00.90 bitrate=   6.3kbits/s speed=0.0772x elapsed=0:00:11.65    \nframe=   59 fps=4.8 q=38.0 size=       1KiB time=00:00:00.96 bitrate=   5.9kbits/s speed=0.0794x elapsed=0:00:12.17    \nframe=   65 fps=5.1 q=27.0 size=       1KiB time=00:00:01.06 bitrate=   5.3kbits/s speed=0.0841x elapsed=0:00:12.68    \nframe=   70 fps=5.3 q=42.0 size=       1KiB time=00:00:01.15 bitrate=   5.0kbits/s speed=0.0871x elapsed=0:00:13.20    \nframe=   73 fps=5.3 q=35.0 size=       1KiB time=00:00:01.20 bitrate=   4.7kbits/s speed=0.0874x elapsed=0:00:13.73    \nframe=   78 fps=5.5 q=43.0 size=       1KiB time=00:00:01.28 bitrate=   4.4kbits/s speed=0.09x elapsed=0:00:14.25    \nframe=   83 fps=5.6 q=40.0 size=       1KiB time=00:00:01.36 bitrate=   4.2kbits/s speed=0.0926x elapsed=0:00:14.75    \nframe=   87 fps=5.7 q=40.0 size=       1KiB time=00:00:01.43 bitrate=   4.0kbits/s speed=0.0937x elapsed=0:00:15.29    \nframe=   91 fps=5.8 q=40.0 size=       1KiB time=00:00:01.50 bitrate=   3.8kbits/s speed=0.0948x elapsed=0:00:15.81    \nframe=   98 fps=6.0 q=44.0 size=       1KiB time=00:00:01.61 bitrate=   3.5kbits/s speed=0.099x elapsed=0:00:16.32    \nframe=  103 fps=6.1 q=41.0 size=       1KiB time=00:00:01.70 bitrate=   3.4kbits/s speed=0.101x elapsed=0:00:16.84    \nframe=  107 fps=6.2 q=41.0 size=       1KiB time=00:00:01.76 bitrate=   3.2kbits/s speed=0.102x elapsed=0:00:17.36    \nframe=  114 fps=6.4 q=44.0 size=       1KiB time=00:00:01.88 bitrate=   3.0kbits/s speed=0.105x elapsed=0:00:17.89    \nframe=  118 fps=6.4 q=44.0 size=       1KiB time=00:00:01.95 bitrate=   2.9kbits/s speed=0.106x elapsed=0:00:18.40    \nframe=  122 fps=6.4 q=44.0 size=       1KiB time=00:00:02.01 bitrate=   2.8kbits/s speed=0.107x elapsed=0:00:18.92    \nframe=  128 fps=6.6 q=44.0 size=       1KiB time=00:00:02.11 bitrate=   2.7kbits/s speed=0.109x elapsed=0:00:19.43    \nframe=  134 fps=6.7 q=44.0 size=       1KiB time=00:00:02.21 bitrate=   2.6kbits/s speed=0.111x elapsed=0:00:19.96    \nframe=  137 fps=6.7 q=37.0 size=       1KiB time=00:00:02.26 bitrate=   2.5kbits/s speed=0.111x elapsed=0:00:20.48    \nframe=  144 fps=6.9 q=45.0 size=       1KiB time=00:00:02.38 bitrate=   2.4kbits/s speed=0.114x elapsed=0:00:20.99    \nframe=  148 fps=6.9 q=45.0 size=       1KiB time=00:00:02.45 bitrate=   2.3kbits/s speed=0.114x elapsed=0:00:21.53    \nframe=  151 fps=6.8 q=43.0 size=       1KiB time=00:00:02.50 bitrate=   2.3kbits/s speed=0.113x elapsed=0:00:22.05    \nframe=  158 fps=7.0 q=45.0 size=       1KiB time=00:00:02.61 bitrate=   2.2kbits/s speed=0.116x elapsed=0:00:22.56    \nframe=  163 fps=7.1 q=41.0 size=       1KiB time=00:00:02.70 bitrate=   2.1kbits/s speed=0.117x elapsed=0:00:23.08    \nframe=  167 fps=7.1 q=41.0 size=       1KiB time=00:00:02.76 bitrate=   2.1kbits/s speed=0.117x elapsed=0:00:23.60    \nframe=  173 fps=7.2 q=39.0 size=       1KiB time=00:00:02.86 bitrate=   2.0kbits/s speed=0.119x elapsed=0:00:24.14    \nframe=  179 fps=7.3 q=42.0 size=       1KiB time=00:00:02.96 bitrate=   1.9kbits/s speed=0.12x elapsed=0:00:24.65    \nframe=  183 fps=7.3 q=42.0 size=       1KiB time=00:00:03.03 bitrate=   1.9kbits/s speed=0.12x elapsed=0:00:25.17    \nframe=  189 fps=7.3 q=39.0 size=       1KiB time=00:00:03.13 bitrate=   1.8kbits/s speed=0.122x elapsed=0:00:25.72    \nframe=  195 fps=7.4 q=42.0 size=       1KiB time=00:00:03.23 bitrate=   1.8kbits/s speed=0.123x elapsed=0:00:26.25    \nframe=  199 fps=7.4 q=42.0 size=       1KiB time=00:00:03.30 bitrate=   1.7kbits/s speed=0.123x elapsed=0:00:26.76    \nframe=  205 fps=7.5 q=39.0 size=       1KiB time=00:00:03.40 bitrate=   1.7kbits/s speed=0.124x elapsed=0:00:27.31    \nframe=  213 fps=7.7 q=41.0 size=       1KiB time=00:00:03.53 bitrate=   1.6kbits/s speed=0.127x elapsed=0:00:27.83    \nframe=  217 fps=7.7 q=38.0 size=       1KiB time=00:00:03.60 bitrate=   1.6kbits/s speed=0.127x elapsed=0:00:28.33    \nframe=  225 fps=7.8 q=32.0 size=       1KiB time=00:00:03.73 bitrate=   1.5kbits/s speed=0.129x elapsed=0:00:28.86    \nframe=  233 fps=7.9 q=39.0 size=       1KiB time=00:00:03.86 bitrate=   1.5kbits/s speed=0.132x elapsed=0:00:29.39    \nframe=  237 fps=7.9 q=40.0 size=       1KiB time=00:00:03.93 bitrate=   1.4kbits/s speed=0.132x elapsed=0:00:29.91    \nframe=  243 fps=8.0 q=44.0 size=       1KiB time=00:00:04.03 bitrate=   1.4kbits/s speed=0.133x elapsed=0:00:30.43    \nframe=  249 fps=8.0 q=39.0 size=       1KiB time=00:00:04.13 bitrate=   1.4kbits/s speed=0.134x elapsed=0:00:30.94    \nframe=  253 fps=8.0 q=40.0 size=       1KiB time=00:00:04.20 bitrate=   1.4kbits/s speed=0.133x elapsed=0:00:31.46    \nframe=  259 fps=8.1 q=43.0 size=       1KiB time=00:00:04.30 bitrate=   1.3kbits/s speed=0.134x elapsed=0:00:32.00    \nframe=  265 fps=8.2 q=39.0 size=       1KiB time=00:00:04.40 bitrate=   1.3kbits/s speed=0.135x elapsed=0:00:32.51    \nframe=  269 fps=8.1 q=42.0 size=       1KiB time=00:00:04.46 bitrate=   1.3kbits/s speed=0.135x elapsed=0:00:33.02    \nframe=  277 fps=8.3 q=46.0 size=       1KiB time=00:00:04.60 bitrate=   1.2kbits/s speed=0.137x elapsed=0:00:33.56    \nframe=  281 fps=8.2 q=42.0 size=       1KiB time=00:00:04.66 bitrate=   1.2kbits/s speed=0.137x elapsed=0:00:34.07    \nframe=  293 fps=8.5 q=42.0 size=       1KiB time=00:00:04.86 bitrate=   1.2kbits/s speed=0.141x elapsed=0:00:34.63    \n[out#0/matroska @ 0000019efafa7900] video:1082KiB audio:0KiB subtitle:0KiB other streams:0KiB global headers:0KiB muxing overhead: 0.191960%\nframe=  300 fps=8.6 q=46.0 Lsize=    1084KiB time=00:00:04.98 bitrate=1781.4kbits/s speed=0.143x elapsed=0:00:34.79    \n",
  "seconds": 35.27152633666992,
  "probe_out": {}
}